<mxfile host="app.diagrams.net" modified="2021-10-22T04:19:36.997Z" agent="5.0 (Windows NT 10.0; Win64; x64) AppleWebKit/537.36 (KHTML, like Gecko) Chrome/95.0.4638.54 Safari/537.36" etag="TdUgx-YfQ4X13df2G0zy" version="15.5.8" type="github">
  <diagram id="NGX1FlPJLheHo26R9paN" name="Page-1">
    <mxGraphModel dx="1019" dy="453" grid="1" gridSize="10" guides="1" tooltips="1" connect="1" arrows="1" fold="1" page="1" pageScale="1" pageWidth="850" pageHeight="1100" math="0" shadow="0">
      <root>
        <mxCell id="0" />
        <mxCell id="1" parent="0" />
        <mxCell id="qRUA-35eMvhNHT7bo69Z-146" value="" style="group" vertex="1" connectable="0" parent="1">
          <mxGeometry x="60" y="240" width="730" height="760" as="geometry" />
        </mxCell>
        <mxCell id="qRUA-35eMvhNHT7bo69Z-41" value="" style="group" vertex="1" connectable="0" parent="qRUA-35eMvhNHT7bo69Z-146">
          <mxGeometry x="70" width="560" height="760" as="geometry" />
        </mxCell>
        <mxCell id="qRUA-35eMvhNHT7bo69Z-21" value="" style="group" vertex="1" connectable="0" parent="qRUA-35eMvhNHT7bo69Z-41">
          <mxGeometry y="160" width="560" height="600" as="geometry" />
        </mxCell>
        <mxCell id="qRUA-35eMvhNHT7bo69Z-11" value="System User" style="rounded=0;whiteSpace=wrap;html=1;" vertex="1" parent="qRUA-35eMvhNHT7bo69Z-21">
          <mxGeometry y="260" width="120" height="60" as="geometry" />
        </mxCell>
        <mxCell id="qRUA-35eMvhNHT7bo69Z-12" value="Creates" style="rhombus;whiteSpace=wrap;html=1;" vertex="1" parent="qRUA-35eMvhNHT7bo69Z-21">
          <mxGeometry x="250" y="250" width="80" height="80" as="geometry" />
        </mxCell>
        <mxCell id="qRUA-35eMvhNHT7bo69Z-13" value="Campaign" style="rounded=0;whiteSpace=wrap;html=1;" vertex="1" parent="qRUA-35eMvhNHT7bo69Z-21">
          <mxGeometry x="440" y="260" width="120" height="60" as="geometry" />
        </mxCell>
        <mxCell id="qRUA-35eMvhNHT7bo69Z-14" value="Template" style="rounded=0;whiteSpace=wrap;html=1;" vertex="1" parent="qRUA-35eMvhNHT7bo69Z-21">
          <mxGeometry x="440" y="30" width="120" height="60" as="geometry" />
        </mxCell>
        <mxCell id="qRUA-35eMvhNHT7bo69Z-15" value="Consists" style="rhombus;whiteSpace=wrap;html=1;" vertex="1" parent="qRUA-35eMvhNHT7bo69Z-21">
          <mxGeometry x="460" y="130" width="80" height="80" as="geometry" />
        </mxCell>
        <mxCell id="qRUA-35eMvhNHT7bo69Z-16" value="Consists" style="rhombus;whiteSpace=wrap;html=1;" vertex="1" parent="qRUA-35eMvhNHT7bo69Z-21">
          <mxGeometry x="460" y="370" width="80" height="80" as="geometry" />
        </mxCell>
        <mxCell id="qRUA-35eMvhNHT7bo69Z-17" value="Target User" style="rounded=0;whiteSpace=wrap;html=1;" vertex="1" parent="qRUA-35eMvhNHT7bo69Z-21">
          <mxGeometry x="230" y="450" width="120" height="60" as="geometry" />
        </mxCell>
        <mxCell id="qRUA-35eMvhNHT7bo69Z-18" value="Sends Campaign" style="rhombus;whiteSpace=wrap;html=1;" vertex="1" parent="qRUA-35eMvhNHT7bo69Z-21">
          <mxGeometry x="20" y="430" width="80" height="80" as="geometry" />
        </mxCell>
        <mxCell id="qRUA-35eMvhNHT7bo69Z-20" value="Staff User" style="rounded=0;whiteSpace=wrap;html=1;" vertex="1" parent="qRUA-35eMvhNHT7bo69Z-21">
          <mxGeometry x="220" y="110" width="120" height="60" as="geometry" />
        </mxCell>
        <mxCell id="qRUA-35eMvhNHT7bo69Z-23" value="" style="endArrow=none;html=1;rounded=0;exitX=1;exitY=0.5;exitDx=0;exitDy=0;" edge="1" parent="qRUA-35eMvhNHT7bo69Z-21" source="qRUA-35eMvhNHT7bo69Z-11">
          <mxGeometry width="50" height="50" relative="1" as="geometry">
            <mxPoint x="150" y="330" as="sourcePoint" />
            <mxPoint x="250" y="290" as="targetPoint" />
          </mxGeometry>
        </mxCell>
        <mxCell id="qRUA-35eMvhNHT7bo69Z-24" value="" style="endArrow=none;html=1;rounded=0;entryX=0;entryY=0.5;entryDx=0;entryDy=0;" edge="1" parent="qRUA-35eMvhNHT7bo69Z-21" target="qRUA-35eMvhNHT7bo69Z-13">
          <mxGeometry width="50" height="50" relative="1" as="geometry">
            <mxPoint x="330" y="290" as="sourcePoint" />
            <mxPoint x="430" y="280" as="targetPoint" />
          </mxGeometry>
        </mxCell>
        <mxCell id="qRUA-35eMvhNHT7bo69Z-25" value="" style="endArrow=none;html=1;rounded=0;entryX=0.5;entryY=1;entryDx=0;entryDy=0;exitX=0.5;exitY=0;exitDx=0;exitDy=0;" edge="1" parent="qRUA-35eMvhNHT7bo69Z-21" source="qRUA-35eMvhNHT7bo69Z-13" target="qRUA-35eMvhNHT7bo69Z-15">
          <mxGeometry width="50" height="50" relative="1" as="geometry">
            <mxPoint x="510" y="260" as="sourcePoint" />
            <mxPoint x="560" y="210" as="targetPoint" />
          </mxGeometry>
        </mxCell>
        <mxCell id="qRUA-35eMvhNHT7bo69Z-26" value="" style="endArrow=none;html=1;rounded=0;entryX=0.5;entryY=1;entryDx=0;entryDy=0;" edge="1" parent="qRUA-35eMvhNHT7bo69Z-21" target="qRUA-35eMvhNHT7bo69Z-13">
          <mxGeometry width="50" height="50" relative="1" as="geometry">
            <mxPoint x="500" y="370" as="sourcePoint" />
            <mxPoint x="580" y="330" as="targetPoint" />
          </mxGeometry>
        </mxCell>
        <mxCell id="qRUA-35eMvhNHT7bo69Z-27" value="" style="endArrow=none;html=1;rounded=0;exitX=1;exitY=0.5;exitDx=0;exitDy=0;entryX=0.5;entryY=1;entryDx=0;entryDy=0;" edge="1" parent="qRUA-35eMvhNHT7bo69Z-21" source="qRUA-35eMvhNHT7bo69Z-17" target="qRUA-35eMvhNHT7bo69Z-16">
          <mxGeometry width="50" height="50" relative="1" as="geometry">
            <mxPoint x="490" y="500" as="sourcePoint" />
            <mxPoint x="540" y="450" as="targetPoint" />
            <Array as="points">
              <mxPoint x="500" y="480" />
            </Array>
          </mxGeometry>
        </mxCell>
        <mxCell id="qRUA-35eMvhNHT7bo69Z-28" value="" style="endArrow=none;html=1;rounded=0;" edge="1" parent="qRUA-35eMvhNHT7bo69Z-21">
          <mxGeometry width="50" height="50" relative="1" as="geometry">
            <mxPoint x="290" y="250" as="sourcePoint" />
            <mxPoint x="290" y="170" as="targetPoint" />
          </mxGeometry>
        </mxCell>
        <mxCell id="qRUA-35eMvhNHT7bo69Z-29" value="" style="endArrow=none;html=1;rounded=0;entryX=0.5;entryY=1;entryDx=0;entryDy=0;" edge="1" parent="qRUA-35eMvhNHT7bo69Z-21" source="qRUA-35eMvhNHT7bo69Z-15" target="qRUA-35eMvhNHT7bo69Z-14">
          <mxGeometry width="50" height="50" relative="1" as="geometry">
            <mxPoint x="580" y="230" as="sourcePoint" />
            <mxPoint x="630" y="180" as="targetPoint" />
          </mxGeometry>
        </mxCell>
        <mxCell id="qRUA-35eMvhNHT7bo69Z-31" value="Has" style="rhombus;whiteSpace=wrap;html=1;" vertex="1" parent="qRUA-35eMvhNHT7bo69Z-21">
          <mxGeometry x="20" y="100" width="80" height="80" as="geometry" />
        </mxCell>
        <mxCell id="qRUA-35eMvhNHT7bo69Z-32" value="Permission Group" style="rounded=0;whiteSpace=wrap;html=1;" vertex="1" parent="qRUA-35eMvhNHT7bo69Z-21">
          <mxGeometry width="120" height="60" as="geometry" />
        </mxCell>
        <mxCell id="qRUA-35eMvhNHT7bo69Z-36" value="" style="endArrow=none;html=1;rounded=0;exitX=0.5;exitY=1;exitDx=0;exitDy=0;" edge="1" parent="qRUA-35eMvhNHT7bo69Z-21" source="qRUA-35eMvhNHT7bo69Z-32" target="qRUA-35eMvhNHT7bo69Z-31">
          <mxGeometry width="50" height="50" relative="1" as="geometry">
            <mxPoint x="-110" y="-290.71067811865476" as="sourcePoint" />
            <mxPoint x="210" y="399.28932188134524" as="targetPoint" />
          </mxGeometry>
        </mxCell>
        <mxCell id="qRUA-35eMvhNHT7bo69Z-37" value="" style="endArrow=none;html=1;rounded=0;" edge="1" parent="qRUA-35eMvhNHT7bo69Z-21">
          <mxGeometry width="50" height="50" relative="1" as="geometry">
            <mxPoint x="100" y="140" as="sourcePoint" />
            <mxPoint x="220" y="140" as="targetPoint" />
          </mxGeometry>
        </mxCell>
        <mxCell id="qRUA-35eMvhNHT7bo69Z-38" value="" style="endArrow=none;html=1;rounded=0;entryX=0.5;entryY=1;entryDx=0;entryDy=0;exitX=0.5;exitY=0;exitDx=0;exitDy=0;exitPerimeter=0;" edge="1" parent="qRUA-35eMvhNHT7bo69Z-21" source="qRUA-35eMvhNHT7bo69Z-18" target="qRUA-35eMvhNHT7bo69Z-11">
          <mxGeometry width="50" height="50" relative="1" as="geometry">
            <mxPoint x="80" y="420" as="sourcePoint" />
            <mxPoint x="180" y="350" as="targetPoint" />
          </mxGeometry>
        </mxCell>
        <mxCell id="qRUA-35eMvhNHT7bo69Z-39" value="" style="endArrow=none;html=1;rounded=0;" edge="1" parent="qRUA-35eMvhNHT7bo69Z-21">
          <mxGeometry width="50" height="50" relative="1" as="geometry">
            <mxPoint x="100" y="470" as="sourcePoint" />
            <mxPoint x="230" y="470" as="targetPoint" />
          </mxGeometry>
        </mxCell>
        <mxCell id="qRUA-35eMvhNHT7bo69Z-43" value="first_name" style="ellipse;whiteSpace=wrap;html=1;" vertex="1" parent="qRUA-35eMvhNHT7bo69Z-21">
          <mxGeometry y="200" width="60" height="40" as="geometry" />
        </mxCell>
        <mxCell id="qRUA-35eMvhNHT7bo69Z-44" value="last_name" style="ellipse;whiteSpace=wrap;html=1;" vertex="1" parent="qRUA-35eMvhNHT7bo69Z-21">
          <mxGeometry x="70" y="200" width="60" height="40" as="geometry" />
        </mxCell>
        <mxCell id="qRUA-35eMvhNHT7bo69Z-46" value="" style="endArrow=none;html=1;rounded=0;entryX=0.709;entryY=0.961;entryDx=0;entryDy=0;entryPerimeter=0;exitX=0.25;exitY=0;exitDx=0;exitDy=0;" edge="1" parent="qRUA-35eMvhNHT7bo69Z-21" source="qRUA-35eMvhNHT7bo69Z-11" target="qRUA-35eMvhNHT7bo69Z-43">
          <mxGeometry width="50" height="50" relative="1" as="geometry">
            <mxPoint x="10" y="290" as="sourcePoint" />
            <mxPoint x="60" y="240" as="targetPoint" />
          </mxGeometry>
        </mxCell>
        <mxCell id="qRUA-35eMvhNHT7bo69Z-47" value="" style="endArrow=none;html=1;rounded=0;exitX=0.679;exitY=0.03;exitDx=0;exitDy=0;exitPerimeter=0;" edge="1" parent="qRUA-35eMvhNHT7bo69Z-21" source="qRUA-35eMvhNHT7bo69Z-11">
          <mxGeometry width="50" height="50" relative="1" as="geometry">
            <mxPoint x="80" y="280" as="sourcePoint" />
            <mxPoint x="100" y="240" as="targetPoint" />
          </mxGeometry>
        </mxCell>
        <mxCell id="qRUA-35eMvhNHT7bo69Z-55" value="camapaigns_associated" style="ellipse;whiteSpace=wrap;html=1;" vertex="1" parent="qRUA-35eMvhNHT7bo69Z-21">
          <mxGeometry x="130" y="530" width="130" height="40" as="geometry" />
        </mxCell>
        <mxCell id="qRUA-35eMvhNHT7bo69Z-54" value="captured_data" style="ellipse;whiteSpace=wrap;html=1;" vertex="1" parent="qRUA-35eMvhNHT7bo69Z-21">
          <mxGeometry x="260" y="560" width="95" height="30" as="geometry" />
        </mxCell>
        <mxCell id="qRUA-35eMvhNHT7bo69Z-56" value="" style="endArrow=none;html=1;rounded=0;" edge="1" parent="qRUA-35eMvhNHT7bo69Z-21" target="qRUA-35eMvhNHT7bo69Z-17">
          <mxGeometry width="50" height="50" relative="1" as="geometry">
            <mxPoint x="310" y="560" as="sourcePoint" />
            <mxPoint x="320" y="500" as="targetPoint" />
          </mxGeometry>
        </mxCell>
        <mxCell id="qRUA-35eMvhNHT7bo69Z-57" value="" style="endArrow=none;html=1;rounded=0;entryX=0.25;entryY=1;entryDx=0;entryDy=0;" edge="1" parent="qRUA-35eMvhNHT7bo69Z-21" source="qRUA-35eMvhNHT7bo69Z-55" target="qRUA-35eMvhNHT7bo69Z-17">
          <mxGeometry width="50" height="50" relative="1" as="geometry">
            <mxPoint x="220" y="570" as="sourcePoint" />
            <mxPoint x="270" y="520" as="targetPoint" />
          </mxGeometry>
        </mxCell>
        <mxCell id="qRUA-35eMvhNHT7bo69Z-58" value="" style="endArrow=none;html=1;rounded=0;" edge="1" parent="qRUA-35eMvhNHT7bo69Z-21" source="qRUA-35eMvhNHT7bo69Z-52">
          <mxGeometry width="50" height="50" relative="1" as="geometry">
            <mxPoint x="400" y="560" as="sourcePoint" />
            <mxPoint x="350" y="510" as="targetPoint" />
          </mxGeometry>
        </mxCell>
        <mxCell id="qRUA-35eMvhNHT7bo69Z-61" value="" style="endArrow=none;html=1;rounded=0;exitX=0.917;exitY=1;exitDx=0;exitDy=0;exitPerimeter=0;" edge="1" parent="qRUA-35eMvhNHT7bo69Z-21" source="qRUA-35eMvhNHT7bo69Z-13">
          <mxGeometry width="50" height="50" relative="1" as="geometry">
            <mxPoint x="530" y="380" as="sourcePoint" />
            <mxPoint x="570" y="330" as="targetPoint" />
          </mxGeometry>
        </mxCell>
        <mxCell id="qRUA-35eMvhNHT7bo69Z-75" value="&lt;u&gt;email&lt;/u&gt;" style="ellipse;whiteSpace=wrap;html=1;" vertex="1" parent="qRUA-35eMvhNHT7bo69Z-21">
          <mxGeometry x="350" y="70" width="60" height="40" as="geometry" />
        </mxCell>
        <mxCell id="qRUA-35eMvhNHT7bo69Z-76" value="first_name" style="ellipse;whiteSpace=wrap;html=1;" vertex="1" parent="qRUA-35eMvhNHT7bo69Z-21">
          <mxGeometry x="310" y="20" width="60" height="40" as="geometry" />
        </mxCell>
        <mxCell id="qRUA-35eMvhNHT7bo69Z-77" value="last_name" style="ellipse;whiteSpace=wrap;html=1;" vertex="1" parent="qRUA-35eMvhNHT7bo69Z-21">
          <mxGeometry x="240" y="50" width="60" height="40" as="geometry" />
        </mxCell>
        <mxCell id="qRUA-35eMvhNHT7bo69Z-81" value="name" style="ellipse;whiteSpace=wrap;html=1;" vertex="1" parent="qRUA-35eMvhNHT7bo69Z-21">
          <mxGeometry x="150" y="20" width="60" height="40" as="geometry" />
        </mxCell>
        <mxCell id="qRUA-35eMvhNHT7bo69Z-83" value="" style="endArrow=none;html=1;rounded=0;entryX=0;entryY=0.75;entryDx=0;entryDy=0;entryPerimeter=0;exitX=1;exitY=0.75;exitDx=0;exitDy=0;" edge="1" parent="qRUA-35eMvhNHT7bo69Z-21" source="qRUA-35eMvhNHT7bo69Z-32" target="qRUA-35eMvhNHT7bo69Z-81">
          <mxGeometry width="50" height="50" relative="1" as="geometry">
            <mxPoint x="110" y="120" as="sourcePoint" />
            <mxPoint x="160" y="70" as="targetPoint" />
          </mxGeometry>
        </mxCell>
        <mxCell id="qRUA-35eMvhNHT7bo69Z-84" value="" style="endArrow=none;html=1;rounded=0;entryX=0.654;entryY=0.989;entryDx=0;entryDy=0;entryPerimeter=0;" edge="1" parent="qRUA-35eMvhNHT7bo69Z-21" target="qRUA-35eMvhNHT7bo69Z-76">
          <mxGeometry width="50" height="50" relative="1" as="geometry">
            <mxPoint x="320" y="110" as="sourcePoint" />
            <mxPoint x="380" y="50" as="targetPoint" />
          </mxGeometry>
        </mxCell>
        <mxCell id="qRUA-35eMvhNHT7bo69Z-85" value="" style="endArrow=none;html=1;rounded=0;entryX=0.5;entryY=1;entryDx=0;entryDy=0;exitX=0.392;exitY=0.03;exitDx=0;exitDy=0;exitPerimeter=0;" edge="1" parent="qRUA-35eMvhNHT7bo69Z-21" source="qRUA-35eMvhNHT7bo69Z-20" target="qRUA-35eMvhNHT7bo69Z-77">
          <mxGeometry width="50" height="50" relative="1" as="geometry">
            <mxPoint x="240" y="140" as="sourcePoint" />
            <mxPoint x="290" y="90" as="targetPoint" />
          </mxGeometry>
        </mxCell>
        <mxCell id="qRUA-35eMvhNHT7bo69Z-86" value="" style="endArrow=none;html=1;rounded=0;entryX=0.5;entryY=1;entryDx=0;entryDy=0;" edge="1" parent="qRUA-35eMvhNHT7bo69Z-21" target="qRUA-35eMvhNHT7bo69Z-75">
          <mxGeometry width="50" height="50" relative="1" as="geometry">
            <mxPoint x="340" y="130" as="sourcePoint" />
            <mxPoint x="410" y="110" as="targetPoint" />
          </mxGeometry>
        </mxCell>
        <mxCell id="qRUA-35eMvhNHT7bo69Z-88" value="" style="shape=partialRectangle;whiteSpace=wrap;html=1;right=0;top=0;bottom=0;fillColor=none;routingCenterX=-0.5;" vertex="1" parent="qRUA-35eMvhNHT7bo69Z-21">
          <mxGeometry x="130" y="280" width="50" height="20" as="geometry" />
        </mxCell>
        <mxCell id="qRUA-35eMvhNHT7bo69Z-148" value="" style="endArrow=none;html=1;rounded=0;" edge="1" parent="qRUA-35eMvhNHT7bo69Z-21">
          <mxGeometry width="50" height="50" relative="1" as="geometry">
            <mxPoint x="280" y="187" as="sourcePoint" />
            <mxPoint x="300" y="187" as="targetPoint" />
          </mxGeometry>
        </mxCell>
        <mxCell id="qRUA-35eMvhNHT7bo69Z-152" value="" style="endArrow=none;html=1;rounded=0;" edge="1" parent="qRUA-35eMvhNHT7bo69Z-21">
          <mxGeometry width="50" height="50" relative="1" as="geometry">
            <mxPoint x="372" y="225" as="sourcePoint" />
            <mxPoint x="388" y="211" as="targetPoint" />
          </mxGeometry>
        </mxCell>
        <mxCell id="qRUA-35eMvhNHT7bo69Z-153" value="" style="endArrow=none;html=1;rounded=0;" edge="1" parent="qRUA-35eMvhNHT7bo69Z-21">
          <mxGeometry width="50" height="50" relative="1" as="geometry">
            <mxPoint x="369" y="230" as="sourcePoint" />
            <mxPoint x="360" y="210" as="targetPoint" />
          </mxGeometry>
        </mxCell>
        <mxCell id="qRUA-35eMvhNHT7bo69Z-33" value="Permission" style="rounded=0;whiteSpace=wrap;html=1;" vertex="1" parent="qRUA-35eMvhNHT7bo69Z-41">
          <mxGeometry x="205" y="10" width="120" height="60" as="geometry" />
        </mxCell>
        <mxCell id="qRUA-35eMvhNHT7bo69Z-34" value="Has" style="rhombus;whiteSpace=wrap;html=1;" vertex="1" parent="qRUA-35eMvhNHT7bo69Z-41">
          <mxGeometry x="20" width="80" height="80" as="geometry" />
        </mxCell>
        <mxCell id="qRUA-35eMvhNHT7bo69Z-35" value="" style="endArrow=none;html=1;rounded=0;exitX=0.5;exitY=0;exitDx=0;exitDy=0;" edge="1" parent="qRUA-35eMvhNHT7bo69Z-41" source="qRUA-35eMvhNHT7bo69Z-32" target="qRUA-35eMvhNHT7bo69Z-34">
          <mxGeometry width="50" height="50" relative="1" as="geometry">
            <mxPoint x="50" y="140" as="sourcePoint" />
            <mxPoint x="100" y="90" as="targetPoint" />
          </mxGeometry>
        </mxCell>
        <mxCell id="qRUA-35eMvhNHT7bo69Z-40" value="" style="endArrow=none;html=1;rounded=0;exitX=1;exitY=0.5;exitDx=0;exitDy=0;" edge="1" parent="qRUA-35eMvhNHT7bo69Z-41" source="qRUA-35eMvhNHT7bo69Z-34" target="qRUA-35eMvhNHT7bo69Z-33">
          <mxGeometry width="50" height="50" relative="1" as="geometry">
            <mxPoint x="240" y="180" as="sourcePoint" />
            <mxPoint x="290" y="130" as="targetPoint" />
          </mxGeometry>
        </mxCell>
        <mxCell id="qRUA-35eMvhNHT7bo69Z-63" value="&lt;u&gt;template_id&lt;/u&gt;" style="ellipse;whiteSpace=wrap;html=1;" vertex="1" parent="qRUA-35eMvhNHT7bo69Z-41">
          <mxGeometry x="410" y="120" width="70" height="40" as="geometry" />
        </mxCell>
        <mxCell id="qRUA-35eMvhNHT7bo69Z-64" value="name" style="ellipse;whiteSpace=wrap;html=1;" vertex="1" parent="qRUA-35eMvhNHT7bo69Z-41">
          <mxGeometry x="500" y="120" width="60" height="40" as="geometry" />
        </mxCell>
        <mxCell id="qRUA-35eMvhNHT7bo69Z-66" value="" style="endArrow=none;html=1;rounded=0;entryX=0.5;entryY=1;entryDx=0;entryDy=0;exitX=0.151;exitY=0.03;exitDx=0;exitDy=0;exitPerimeter=0;" edge="1" parent="qRUA-35eMvhNHT7bo69Z-41" source="qRUA-35eMvhNHT7bo69Z-14" target="qRUA-35eMvhNHT7bo69Z-63">
          <mxGeometry width="50" height="50" relative="1" as="geometry">
            <mxPoint x="390" y="220" as="sourcePoint" />
            <mxPoint x="440" y="170" as="targetPoint" />
          </mxGeometry>
        </mxCell>
        <mxCell id="qRUA-35eMvhNHT7bo69Z-67" value="" style="endArrow=none;html=1;rounded=0;entryX=0.5;entryY=1;entryDx=0;entryDy=0;" edge="1" parent="qRUA-35eMvhNHT7bo69Z-41" source="qRUA-35eMvhNHT7bo69Z-14" target="qRUA-35eMvhNHT7bo69Z-64">
          <mxGeometry width="50" height="50" relative="1" as="geometry">
            <mxPoint x="550" y="260" as="sourcePoint" />
            <mxPoint x="600" y="210" as="targetPoint" />
          </mxGeometry>
        </mxCell>
        <mxCell id="qRUA-35eMvhNHT7bo69Z-70" value="&lt;u&gt;permission_id&lt;/u&gt;" style="ellipse;whiteSpace=wrap;html=1;" vertex="1" parent="qRUA-35eMvhNHT7bo69Z-41">
          <mxGeometry x="370" width="80" height="40" as="geometry" />
        </mxCell>
        <mxCell id="qRUA-35eMvhNHT7bo69Z-71" value="details" style="ellipse;whiteSpace=wrap;html=1;" vertex="1" parent="qRUA-35eMvhNHT7bo69Z-41">
          <mxGeometry x="355" y="50" width="65" height="30" as="geometry" />
        </mxCell>
        <mxCell id="qRUA-35eMvhNHT7bo69Z-72" value="" style="endArrow=none;html=1;rounded=0;exitX=1;exitY=0.5;exitDx=0;exitDy=0;entryX=0;entryY=0.5;entryDx=0;entryDy=0;" edge="1" parent="qRUA-35eMvhNHT7bo69Z-41" source="qRUA-35eMvhNHT7bo69Z-33" target="qRUA-35eMvhNHT7bo69Z-70">
          <mxGeometry width="50" height="50" relative="1" as="geometry">
            <mxPoint x="310" y="80" as="sourcePoint" />
            <mxPoint x="360" y="30" as="targetPoint" />
          </mxGeometry>
        </mxCell>
        <mxCell id="qRUA-35eMvhNHT7bo69Z-73" value="" style="endArrow=none;html=1;rounded=0;exitX=1;exitY=0.75;exitDx=0;exitDy=0;entryX=0;entryY=0.5;entryDx=0;entryDy=0;" edge="1" parent="qRUA-35eMvhNHT7bo69Z-41" source="qRUA-35eMvhNHT7bo69Z-33" target="qRUA-35eMvhNHT7bo69Z-71">
          <mxGeometry width="50" height="50" relative="1" as="geometry">
            <mxPoint x="310" y="140" as="sourcePoint" />
            <mxPoint x="360" y="90" as="targetPoint" />
          </mxGeometry>
        </mxCell>
        <mxCell id="qRUA-35eMvhNHT7bo69Z-78" value="&lt;u&gt;group_id&lt;/u&gt;" style="ellipse;whiteSpace=wrap;html=1;" vertex="1" parent="qRUA-35eMvhNHT7bo69Z-41">
          <mxGeometry x="135" y="120" width="70" height="40" as="geometry" />
        </mxCell>
        <mxCell id="qRUA-35eMvhNHT7bo69Z-82" value="" style="endArrow=none;html=1;rounded=0;entryX=0;entryY=1;entryDx=0;entryDy=0;exitX=1;exitY=0.5;exitDx=0;exitDy=0;" edge="1" parent="qRUA-35eMvhNHT7bo69Z-41" source="qRUA-35eMvhNHT7bo69Z-32" target="qRUA-35eMvhNHT7bo69Z-78">
          <mxGeometry width="50" height="50" relative="1" as="geometry">
            <mxPoint x="120" y="210" as="sourcePoint" />
            <mxPoint x="170" y="160" as="targetPoint" />
          </mxGeometry>
        </mxCell>
        <mxCell id="qRUA-35eMvhNHT7bo69Z-42" value="&lt;u&gt;email&lt;/u&gt;" style="ellipse;whiteSpace=wrap;html=1;" vertex="1" parent="qRUA-35eMvhNHT7bo69Z-146">
          <mxGeometry y="360" width="60" height="40" as="geometry" />
        </mxCell>
        <mxCell id="qRUA-35eMvhNHT7bo69Z-45" value="" style="endArrow=none;html=1;rounded=0;entryX=1;entryY=1;entryDx=0;entryDy=0;exitX=0;exitY=0;exitDx=0;exitDy=0;" edge="1" parent="qRUA-35eMvhNHT7bo69Z-146" source="qRUA-35eMvhNHT7bo69Z-11" target="qRUA-35eMvhNHT7bo69Z-42">
          <mxGeometry width="50" height="50" relative="1" as="geometry">
            <mxPoint x="30" y="440" as="sourcePoint" />
            <mxPoint x="80" y="390" as="targetPoint" />
          </mxGeometry>
        </mxCell>
        <mxCell id="qRUA-35eMvhNHT7bo69Z-48" value="&lt;u&gt;camp_id&lt;/u&gt;" style="ellipse;whiteSpace=wrap;html=1;" vertex="1" parent="qRUA-35eMvhNHT7bo69Z-146">
          <mxGeometry x="610" y="370" width="60" height="40" as="geometry" />
        </mxCell>
        <mxCell id="qRUA-35eMvhNHT7bo69Z-49" value="name" style="ellipse;whiteSpace=wrap;html=1;" vertex="1" parent="qRUA-35eMvhNHT7bo69Z-146">
          <mxGeometry x="650" y="410" width="60" height="40" as="geometry" />
        </mxCell>
        <mxCell id="qRUA-35eMvhNHT7bo69Z-51" value="scheduled_date" style="ellipse;whiteSpace=wrap;html=1;" vertex="1" parent="qRUA-35eMvhNHT7bo69Z-146">
          <mxGeometry x="640" y="470" width="90" height="40" as="geometry" />
        </mxCell>
        <mxCell id="qRUA-35eMvhNHT7bo69Z-52" value="&lt;u&gt;email&lt;/u&gt;" style="ellipse;whiteSpace=wrap;html=1;" vertex="1" parent="qRUA-35eMvhNHT7bo69Z-146">
          <mxGeometry x="410" y="680" width="60" height="40" as="geometry" />
        </mxCell>
        <mxCell id="qRUA-35eMvhNHT7bo69Z-59" value="" style="endArrow=none;html=1;rounded=0;" edge="1" parent="qRUA-35eMvhNHT7bo69Z-146">
          <mxGeometry width="50" height="50" relative="1" as="geometry">
            <mxPoint x="620" y="420" as="sourcePoint" />
            <mxPoint x="630" y="410" as="targetPoint" />
          </mxGeometry>
        </mxCell>
        <mxCell id="qRUA-35eMvhNHT7bo69Z-60" value="" style="endArrow=none;html=1;rounded=0;" edge="1" parent="qRUA-35eMvhNHT7bo69Z-146">
          <mxGeometry width="50" height="50" relative="1" as="geometry">
            <mxPoint x="630" y="450" as="sourcePoint" />
            <mxPoint x="660" y="440" as="targetPoint" />
          </mxGeometry>
        </mxCell>
        <mxCell id="qRUA-35eMvhNHT7bo69Z-65" value="created_date" style="ellipse;whiteSpace=wrap;html=1;" vertex="1" parent="qRUA-35eMvhNHT7bo69Z-146">
          <mxGeometry x="650" y="120" width="80" height="40" as="geometry" />
        </mxCell>
        <mxCell id="qRUA-35eMvhNHT7bo69Z-68" value="" style="endArrow=none;html=1;rounded=0;entryX=0.365;entryY=0.989;entryDx=0;entryDy=0;entryPerimeter=0;" edge="1" parent="qRUA-35eMvhNHT7bo69Z-146" target="qRUA-35eMvhNHT7bo69Z-65">
          <mxGeometry width="50" height="50" relative="1" as="geometry">
            <mxPoint x="630" y="190" as="sourcePoint" />
            <mxPoint x="710" y="160" as="targetPoint" />
          </mxGeometry>
        </mxCell>
        <mxCell id="qRUA-35eMvhNHT7bo69Z-151" value="" style="endArrow=none;html=1;rounded=0;" edge="1" parent="1">
          <mxGeometry width="50" height="50" relative="1" as="geometry">
            <mxPoint x="488" y="628" as="sourcePoint" />
            <mxPoint x="508" y="628" as="targetPoint" />
          </mxGeometry>
        </mxCell>
      </root>
    </mxGraphModel>
  </diagram>
</mxfile>
